# xmcd
#
# Track frame offsets: 
#        150
#        4807
#        16980
#        43620
#        62152
#        79900
#        85350
#        105735
#        119080
#        136530
#        149005
#        163845
#        165557
#        179985
#        183092
#        196712
#        214530
#        229320
#
# Disc length: 3229 seconds
#
# Revision: 5
# Processed by: cddbd v1.5.1PL0 Copyright (c) Steve Scherf et al.
# Submitted via: ExactAudioCopy v0.95a5
#
DISCID=fc0c9b12
DTITLE=Various Artist - Saving Grace
DYEAR=2000
DGENRE=Soundtrack
TTITLE0=Mark Russel - Introduction
TTITLE1=Mark Russel - Grace's Theme
TTITLE2=Filter - Take A Picture
TTITLE3=Steve Harley and Cockney Rebel - Make Me Smile (Come Up and See Me
TTITLE3=)
TTITLE4=Norman Greenbaum - Spirit In The Sky
TTITLE5=Brenda Blethyn and Craig Ferguson - Will You Give Me One? (Film 
TTITLE5=Dialogue)
TTITLE6=Koot - Sunshine At Last
TTITLE7=Mark Russel - Grace In Notting Hill
TTITLE8=Pretenders - Human (Tin Tin Out Mix)
TTITLE9=Mark Russel - Drugden
TTITLE10=Plenty - Might As Well Go Home
TTITLE11=Phyllida Law and Linda Kerr Scott and Clive Merrison - Would  You
TTITLE11=Like Some Cornflakes? (Film Dialogue)
TTITLE12=AFT - Wise Up (Car Port Mix)
TTITLE13=Bill Bailey and Jamie Foreman - The New B323 (Film Dialogue)
TTITLE14=Mark Russel - Cornwall Chase
TTITLE15=Sherena Dugani - Accidental Angel
TTITLE16=Robert Palmer - Witchcraft
TTITLE17=Mark Russel - All Things Bright And Beautiful
EXTD=
EXTT0=
EXTT1=
EXTT2=
EXTT3=
EXTT4=
EXTT5=
EXTT6=
EXTT7=
EXTT8=
EXTT9=
EXTT10=
EXTT11=
EXTT12=
EXTT13=
EXTT14=
EXTT15=
EXTT16=
EXTT17=
PLAYORDER=
